<svg xmlns="http://www.w3.org/2000/svg" xml:space="preserve" width="163px" height="100px" version="1.1" style="shape-rendering:geometricPrecision; text-rendering:geometricPrecision; image-rendering:optimizeQuality; fill-rule:evenodd; clip-rule:evenodd"
viewBox="0 0 16300 10000"
 xmlns:xlink="http://www.w3.org/1999/xlink">
 <defs>
  <style type="text/css">
   <![CDATA[
    .fil0 {fill:#D6C211;fill-rule:nonzero}
   ]]>
  </style>
 </defs>
 <g id="Layer_x0020_1">
  <path class="fil0" d="M418 3069c1076,-2498 3953,-3765 6483,-2676 4086,1759 3843,7779 -461,9318 -1114,399 -2359,401 -3510,-95 -523,-225 -987,-534 -1383,-905 -1543,-1448 -1956,-3719 -1129,-5642zm10404 -2584l476 -476 4990 4991 -4990 4991 -476 -476 4514 -4515 -4514 -4515zm-10355 4563c452,341 951,629 1478,860 -27,-631 37,-1266 183,-1881 -451,-217 -878,-485 -1265,-805 -253,580 -390,1193 -396,1826zm1959 1052c737,266 1517,424 2299,460l-19 -1878c-733,-41 -1460,-197 -2141,-465 -138,616 -189,1254 -139,1883zm2303 928c-758,-33 -1516,-173 -2239,-411 190,1109 705,2102 1551,2848 237,42 476,64 713,66l-25 -2503zm-2739 -594c-525,-211 -1027,-475 -1490,-787 126,1038 604,2007 1368,2724 355,333 774,611 1247,815l21 9c-642,-795 -1018,-1750 -1146,-2761zm3202 133c690,-12 1374,-120 2021,-336 101,-639 113,-1251 46,-1893 -668,229 -1376,346 -2086,354l19 1875zm2519 -526c601,-260 1161,-621 1653,-1089 4,-557 -93,-1104 -280,-1614 -421,341 -885,616 -1375,827 81,622 79,1255 2,1876zm1598 -421c-514,414 -1082,731 -1683,960 -173,894 -501,1768 -982,2543 1427,-652 2427,-1969 2665,-3503zm-2196 1132c-620,179 -1266,271 -1917,282l25 2476c226,-23 449,-63 669,-119 597,-770 1004,-1693 1223,-2639zm-6035 -3959c358,307 754,566 1175,776 157,-509 370,-1001 635,-1460 -279,-169 -510,-366 -731,-605 -425,351 -794,784 -1079,1289zm1605 969c641,259 1326,410 2018,452l-15 -1575c-479,-23 -949,-124 -1382,-314 -262,451 -471,936 -621,1437zm2485 463c690,-8 1376,-126 2020,-357 -104,-550 -283,-1079 -540,-1563 -476,189 -985,303 -1495,332l15 1588zm2461 -536c452,-206 878,-472 1262,-799 -247,-497 -586,-948 -1006,-1322 -248,211 -522,392 -811,542 258,493 442,1026 555,1579zm-5094 -2465c177,190 378,353 600,488 284,-422 616,-811 992,-1153 -568,117 -1109,344 -1592,665zm1022 701c354,145 735,225 1124,246l-14 -1458c-427,347 -799,759 -1110,1212zm1591 245c428,-27 856,-120 1258,-272 -258,-388 -573,-740 -950,-1041 -103,-82 -211,-161 -323,-236l15 1549zm1691 -465c241,-124 460,-267 672,-435 -505,-359 -1087,-607 -1695,-723 407,337 747,728 1023,1158z"/>
 </g>
</svg>
